<svg width="38" height="38" viewBox="0 0 38 38" fill="none" xmlns="http://www.w3.org/2000/svg">
<g opacity="0.5" filter="url(#filter0_d_637_5)">
<rect x="2.44" y="1" width="33.12" height="33.12" rx="16.56" fill="black"/>
</g>
<g clip-path="url(#clip0_637_5)">
<path d="M27.1386 14.4334C27.0465 13.3311 26.3892 11.941 25.0385 11.8913C21.2667 11.6377 16.7984 11.5684 12.9583 11.8913C11.767 12.0248 10.9503 13.476 10.8613 14.5783C10.673 16.8937 10.673 18.2113 10.8613 20.5268C10.9514 21.6291 11.7473 23.0885 12.9604 23.2417C16.846 23.4953 21.2926 23.5315 25.0406 23.2417C26.2164 23.0378 27.0496 21.6291 27.1397 20.5268C27.327 18.2103 27.327 16.7488 27.1386 14.4334ZM16.9288 20.4895V14.5534L22.1041 17.522L16.9288 20.4895Z" fill="white"/>
</g>
<defs>
<filter id="filter0_d_637_5" x="0.440002" y="0" width="37.12" height="37.12" filterUnits="userSpaceOnUse" color-interpolation-filters="sRGB">
<feFlood flood-opacity="0" result="BackgroundImageFix"/>
<feColorMatrix in="SourceAlpha" type="matrix" values="0 0 0 0 0 0 0 0 0 0 0 0 0 0 0 0 0 0 127 0" result="hardAlpha"/>
<feOffset dy="1"/>
<feGaussianBlur stdDeviation="1"/>
<feColorMatrix type="matrix" values="0 0 0 0 0 0 0 0 0 0 0 0 0 0 0 0 0 0 0.25 0"/>
<feBlend mode="normal" in2="BackgroundImageFix" result="effect1_dropShadow_637_5"/>
<feBlend mode="normal" in="SourceGraphic" in2="effect1_dropShadow_637_5" result="shape"/>
</filter>
<clipPath id="clip0_637_5">
<rect width="16.56" height="16.56" fill="white" transform="translate(10.72 9.28)"/>
</clipPath>
</defs>
</svg>
